 <svg
                      xmlns="http://www.w3.org/2000/svg"
                      width="20"
                      height="20"
                      viewBox="0 0 20 20"
                      fill="none"
                    >
                      <path
                        d="M10.8168 8.34796L10.8133 8.34531L10.8079 8.34132C10.7384 8.2909 10.2689 7.97501 9.63537 8.15128C8.97743 8.33438 8.81404 9.16595 9.26116 9.48989C9.5179 9.67591 9.90419 9.82881 10.4248 9.99882C11.59 10.3793 11.1592 11.8972 9.97401 11.9045C9.51149 11.9073 9.29525 11.8802 8.88892 11.6346M10 7.33325V8.09517M10 11.9047V12.6666"
                        stroke="white"
                        strokeMiterlimit="10"
                        strokeLinecap="round"
                        strokeLinejoin="round"
                      />
                      <path
                        d="M10 14C12.2091 14 14 12.2091 14 10C14 7.79086 12.2091 6 10 6C7.79086 6 6 7.79086 6 10C6 12.2091 7.79086 14 10 14Z"
                        stroke="white"
                        strokeMiterlimit="10"
                        strokeLinecap="round"
                        strokeLinejoin="round"
                      />
                      <path
                        d="M13.3005 7.57956H15.7642V9.06904L19.1111 6.09004L15.7642 3.11108V4.60056H11.3016V6.11575M6.69958 12.4204H4.23584V10.9309L0.888916 13.9099L4.23584 16.8889V15.3994H8.69844V13.8842"
                        stroke="white"
                        strokeMiterlimit="10"
                        strokeLinecap="round"
                        strokeLinejoin="round"
                      />
                    </svg>