<svg
                      xmlns="http://www.w3.org/2000/svg"
                      width="20"
                      height="20"
                      viewBox="0 0 20 20"
                      fill="none"
                    >
                      <g clipPath="url(#clip0_0_1140)">
                        <mask
                          id="path-1-outside-1_0_1140"
                          maskUnits="userSpaceOnUse"
                          x="-1.00098"
                          y="-0.167236"
                          width="22"
                          height="18"
                          fill="black"
                        >
                          <rect
                            fill="white"
                            x="-1.00098"
                            y="-0.167236"
                            width="22"
                            height="18"
                          />
                          <path d="M19.7836 10.0696L18.7922 9.74771C18.6701 9.28152 18.4846 8.83425 18.241 8.4184L18.7145 7.48948C18.7758 7.36878 18.7528 7.22229 18.6571 7.1262L17.5984 6.06759C17.5518 6.02089 17.4915 5.99018 17.4263 5.97986C17.3611 5.96954 17.2943 5.98015 17.2356 6.01017L16.3066 6.48361C15.8906 6.2405 15.4434 6.05508 14.9773 5.93243L14.6554 4.94219C14.635 4.87936 14.5952 4.82461 14.5417 4.7858C14.4882 4.747 14.4239 4.72612 14.3578 4.72617H12.8609C12.7253 4.72617 12.6054 4.81328 12.5632 4.94219L12.241 5.93243C11.775 6.05501 11.328 6.24044 10.912 6.48361L9.98352 6.01017C9.92466 5.98014 9.8578 5.96952 9.79254 5.97984C9.72728 5.99016 9.66696 6.02087 9.62023 6.06759L8.56162 7.1262C8.51491 7.17292 8.48419 7.23324 8.47387 7.29851C8.46356 7.36377 8.47417 7.43063 8.5042 7.48948L8.84991 8.16918C8.70967 8.15629 8.56748 8.14965 8.42412 8.14965H4.67798C2.09788 8.14965 -0.000976562 10.2485 -0.000976562 12.8286V16.529C-0.000976562 17.0677 0.43731 17.5064 0.976379 17.5064H12.1242C12.2999 17.5064 12.4652 17.4595 12.6078 17.3779C12.6368 17.4177 12.6748 17.4501 12.7187 17.4725C12.7626 17.4948 12.8112 17.5064 12.8605 17.5064H14.3574C14.4929 17.5064 14.6129 17.4193 14.6551 17.2904L14.9769 16.3001C15.4432 16.1779 15.8906 15.9925 16.3066 15.749L17.2356 16.2224C17.3563 16.2837 17.5027 16.2607 17.5988 16.165L18.6574 15.1064C18.7042 15.0596 18.7349 14.9993 18.7452 14.9341C18.7555 14.8688 18.7449 14.8019 18.7149 14.7431L18.2414 13.8142C18.4847 13.3982 18.6701 12.9509 18.7926 12.4849L19.784 12.163C19.8469 12.1425 19.9016 12.1027 19.9404 12.0492C19.9792 11.9958 20.0001 11.9314 20 11.8653V10.3673C19.9999 10.3012 19.979 10.2368 19.9401 10.1833C19.9012 10.1299 19.8465 10.0901 19.7836 10.0696ZM7.24051 12.5376L6.54988 13.761L5.85964 12.5376L6.21042 8.77543H6.89051L7.24051 12.5376ZM12.1242 16.8806H10.0519V14.5802C10.0519 14.4075 9.91203 14.2673 9.73898 14.2673C9.56593 14.2673 9.42609 14.4071 9.42609 14.5802V16.8806H3.67368V14.5802C3.67368 14.4075 3.53383 14.2673 3.36078 14.2673C3.18773 14.2673 3.04789 14.4071 3.04789 14.5802V16.8806H0.975597C0.781845 16.8806 0.624031 16.7228 0.624031 16.529V12.8286C0.624031 10.5934 2.44241 8.77543 4.6772 8.77543H5.5819L5.22721 12.577C5.22135 12.6405 5.23497 12.7043 5.26627 12.7599L6.27722 14.5517C6.33269 14.6501 6.4366 14.7107 6.54949 14.7107C6.66238 14.7107 6.76629 14.6497 6.82176 14.5517L7.83271 12.7599C7.86401 12.7043 7.87763 12.6405 7.87177 12.577L7.51825 8.77543H8.42295C9.34835 8.77543 10.2019 9.08755 10.8851 9.61177C10.8984 9.62545 10.9132 9.63795 10.9296 9.64927C10.9351 9.65318 10.9406 9.65631 10.946 9.65943C11.8773 10.4028 12.4753 11.5473 12.4753 12.829V16.5294C12.4757 16.7232 12.3179 16.8806 12.1242 16.8806ZM11.5402 9.34263C12.0554 8.74184 12.8097 8.38988 13.6089 8.38988C15.1117 8.38988 16.3348 9.61255 16.3348 11.1153C16.3348 12.6188 15.1121 13.8419 13.6089 13.8419C13.439 13.8419 13.2691 13.8255 13.1011 13.7935V12.8282C13.1011 11.445 12.4976 10.2001 11.5402 9.34263ZM19.3743 11.638L18.4336 11.943C18.382 11.9598 18.3355 11.9896 18.2989 12.0297C18.2623 12.0697 18.2367 12.1186 18.2246 12.1716C18.1072 12.69 17.9022 13.1846 17.6184 13.6341C17.5894 13.68 17.5729 13.7325 17.5705 13.7867C17.568 13.8409 17.5797 13.8948 17.6043 13.9431L18.0535 14.8243L17.3164 15.5615L16.4352 15.1122C16.3869 15.0875 16.333 15.0758 16.2788 15.0782C16.2246 15.0807 16.172 15.0973 16.1262 15.1263C15.6767 15.4101 15.1821 15.6152 14.6636 15.7325C14.6108 15.7446 14.5619 15.7701 14.5218 15.8067C14.4818 15.8432 14.4519 15.8896 14.4351 15.9411L14.13 16.8806H13.0875L13.0621 16.8021C13.0875 16.7154 13.1011 16.624 13.1011 16.529V14.4286C13.2691 14.4544 13.439 14.4681 13.6089 14.4681C15.457 14.4681 16.9602 12.9642 16.9602 11.1157C16.9602 9.26802 15.4566 7.76449 13.6089 7.76449C12.6164 7.76449 11.6808 8.20512 11.0468 8.95669C10.6113 8.66028 10.1287 8.43984 9.61945 8.30473C9.6171 8.29965 9.61515 8.29457 9.61281 8.28949L9.16437 7.40745L9.90148 6.67033L10.7831 7.11956C10.8314 7.14411 10.8852 7.15572 10.9393 7.15326C10.9934 7.15079 11.0459 7.13434 11.0917 7.10549C11.5433 6.82112 12.0351 6.61682 12.5535 6.49924C12.6062 6.48731 12.655 6.46188 12.695 6.42546C12.735 6.38903 12.7648 6.34284 12.7816 6.29142L13.0878 5.35118H14.1304L14.4355 6.29064C14.4522 6.34228 14.482 6.38868 14.5221 6.42527C14.5622 6.46185 14.6111 6.48734 14.664 6.49924C15.1828 6.61682 15.675 6.82072 16.1266 7.10549C16.1724 7.13442 16.225 7.15093 16.2792 7.15339C16.3334 7.15586 16.3872 7.1442 16.4355 7.11956L17.3168 6.67033L18.0539 7.40745L17.6047 8.28871C17.5801 8.33701 17.5684 8.39089 17.5709 8.44506C17.5733 8.49924 17.5898 8.55183 17.6188 8.5977C17.9026 9.04716 18.1076 9.54176 18.225 10.0602C18.2371 10.1132 18.2627 10.1621 18.2993 10.2021C18.3359 10.2422 18.3824 10.272 18.434 10.2887L19.3746 10.5938V11.638H19.3743ZM6.54988 7.62269C8.42178 7.62269 9.94445 6.09962 9.94445 4.22733C9.94445 2.35544 8.42178 0.832764 6.54988 0.832764C4.67838 0.832764 3.15531 2.35544 3.15531 4.22733C3.15531 6.09962 4.67838 7.62269 6.54988 7.62269ZM6.54988 1.45855C8.07646 1.45855 9.31866 2.70075 9.31866 4.22733C9.31866 5.7547 8.07646 6.99729 6.54988 6.99729C5.0233 6.99729 3.7811 5.7547 3.7811 4.22733C3.7811 2.70036 5.0233 1.45855 6.54988 1.45855Z" />
                        </mask>
                        <path
                          d="M19.7836 10.0696L18.7922 9.74771C18.6701 9.28152 18.4846 8.83425 18.241 8.4184L18.7145 7.48948C18.7758 7.36878 18.7528 7.22229 18.6571 7.1262L17.5984 6.06759C17.5518 6.02089 17.4915 5.99018 17.4263 5.97986C17.3611 5.96954 17.2943 5.98015 17.2356 6.01017L16.3066 6.48361C15.8906 6.2405 15.4434 6.05508 14.9773 5.93243L14.6554 4.94219C14.635 4.87936 14.5952 4.82461 14.5417 4.7858C14.4882 4.747 14.4239 4.72612 14.3578 4.72617H12.8609C12.7253 4.72617 12.6054 4.81328 12.5632 4.94219L12.241 5.93243C11.775 6.05501 11.328 6.24044 10.912 6.48361L9.98352 6.01017C9.92466 5.98014 9.8578 5.96952 9.79254 5.97984C9.72728 5.99016 9.66696 6.02087 9.62023 6.06759L8.56162 7.1262C8.51491 7.17292 8.48419 7.23324 8.47387 7.29851C8.46356 7.36377 8.47417 7.43063 8.5042 7.48948L8.84991 8.16918C8.70967 8.15629 8.56748 8.14965 8.42412 8.14965H4.67798C2.09788 8.14965 -0.000976562 10.2485 -0.000976562 12.8286V16.529C-0.000976562 17.0677 0.43731 17.5064 0.976379 17.5064H12.1242C12.2999 17.5064 12.4652 17.4595 12.6078 17.3779C12.6368 17.4177 12.6748 17.4501 12.7187 17.4725C12.7626 17.4948 12.8112 17.5064 12.8605 17.5064H14.3574C14.4929 17.5064 14.6129 17.4193 14.6551 17.2904L14.9769 16.3001C15.4432 16.1779 15.8906 15.9925 16.3066 15.749L17.2356 16.2224C17.3563 16.2837 17.5027 16.2607 17.5988 16.165L18.6574 15.1064C18.7042 15.0596 18.7349 14.9993 18.7452 14.9341C18.7555 14.8688 18.7449 14.8019 18.7149 14.7431L18.2414 13.8142C18.4847 13.3982 18.6701 12.9509 18.7926 12.4849L19.784 12.163C19.8469 12.1425 19.9016 12.1027 19.9404 12.0492C19.9792 11.9958 20.0001 11.9314 20 11.8653V10.3673C19.9999 10.3012 19.979 10.2368 19.9401 10.1833C19.9012 10.1299 19.8465 10.0901 19.7836 10.0696ZM7.24051 12.5376L6.54988 13.761L5.85964 12.5376L6.21042 8.77543H6.89051L7.24051 12.5376ZM12.1242 16.8806H10.0519V14.5802C10.0519 14.4075 9.91203 14.2673 9.73898 14.2673C9.56593 14.2673 9.42609 14.4071 9.42609 14.5802V16.8806H3.67368V14.5802C3.67368 14.4075 3.53383 14.2673 3.36078 14.2673C3.18773 14.2673 3.04789 14.4071 3.04789 14.5802V16.8806H0.975597C0.781845 16.8806 0.624031 16.7228 0.624031 16.529V12.8286C0.624031 10.5934 2.44241 8.77543 4.6772 8.77543H5.5819L5.22721 12.577C5.22135 12.6405 5.23497 12.7043 5.26627 12.7599L6.27722 14.5517C6.33269 14.6501 6.4366 14.7107 6.54949 14.7107C6.66238 14.7107 6.76629 14.6497 6.82176 14.5517L7.83271 12.7599C7.86401 12.7043 7.87763 12.6405 7.87177 12.577L7.51825 8.77543H8.42295C9.34835 8.77543 10.2019 9.08755 10.8851 9.61177C10.8984 9.62545 10.9132 9.63795 10.9296 9.64927C10.9351 9.65318 10.9406 9.65631 10.946 9.65943C11.8773 10.4028 12.4753 11.5473 12.4753 12.829V16.5294C12.4757 16.7232 12.3179 16.8806 12.1242 16.8806ZM11.5402 9.34263C12.0554 8.74184 12.8097 8.38988 13.6089 8.38988C15.1117 8.38988 16.3348 9.61255 16.3348 11.1153C16.3348 12.6188 15.1121 13.8419 13.6089 13.8419C13.439 13.8419 13.2691 13.8255 13.1011 13.7935V12.8282C13.1011 11.445 12.4976 10.2001 11.5402 9.34263ZM19.3743 11.638L18.4336 11.943C18.382 11.9598 18.3355 11.9896 18.2989 12.0297C18.2623 12.0697 18.2367 12.1186 18.2246 12.1716C18.1072 12.69 17.9022 13.1846 17.6184 13.6341C17.5894 13.68 17.5729 13.7325 17.5705 13.7867C17.568 13.8409 17.5797 13.8948 17.6043 13.9431L18.0535 14.8243L17.3164 15.5615L16.4352 15.1122C16.3869 15.0875 16.333 15.0758 16.2788 15.0782C16.2246 15.0807 16.172 15.0973 16.1262 15.1263C15.6767 15.4101 15.1821 15.6152 14.6636 15.7325C14.6108 15.7446 14.5619 15.7701 14.5218 15.8067C14.4818 15.8432 14.4519 15.8896 14.4351 15.9411L14.13 16.8806H13.0875L13.0621 16.8021C13.0875 16.7154 13.1011 16.624 13.1011 16.529V14.4286C13.2691 14.4544 13.439 14.4681 13.6089 14.4681C15.457 14.4681 16.9602 12.9642 16.9602 11.1157C16.9602 9.26802 15.4566 7.76449 13.6089 7.76449C12.6164 7.76449 11.6808 8.20512 11.0468 8.95669C10.6113 8.66028 10.1287 8.43984 9.61945 8.30473C9.6171 8.29965 9.61515 8.29457 9.61281 8.28949L9.16437 7.40745L9.90148 6.67033L10.7831 7.11956C10.8314 7.14411 10.8852 7.15572 10.9393 7.15326C10.9934 7.15079 11.0459 7.13434 11.0917 7.10549C11.5433 6.82112 12.0351 6.61682 12.5535 6.49924C12.6062 6.48731 12.655 6.46188 12.695 6.42546C12.735 6.38903 12.7648 6.34284 12.7816 6.29142L13.0878 5.35118H14.1304L14.4355 6.29064C14.4522 6.34228 14.482 6.38868 14.5221 6.42527C14.5622 6.46185 14.6111 6.48734 14.664 6.49924C15.1828 6.61682 15.675 6.82072 16.1266 7.10549C16.1724 7.13442 16.225 7.15093 16.2792 7.15339C16.3334 7.15586 16.3872 7.1442 16.4355 7.11956L17.3168 6.67033L18.0539 7.40745L17.6047 8.28871C17.5801 8.33701 17.5684 8.39089 17.5709 8.44506C17.5733 8.49924 17.5898 8.55183 17.6188 8.5977C17.9026 9.04716 18.1076 9.54176 18.225 10.0602C18.2371 10.1132 18.2627 10.1621 18.2993 10.2021C18.3359 10.2422 18.3824 10.272 18.434 10.2887L19.3746 10.5938V11.638H19.3743ZM6.54988 7.62269C8.42178 7.62269 9.94445 6.09962 9.94445 4.22733C9.94445 2.35544 8.42178 0.832764 6.54988 0.832764C4.67838 0.832764 3.15531 2.35544 3.15531 4.22733C3.15531 6.09962 4.67838 7.62269 6.54988 7.62269ZM6.54988 1.45855C8.07646 1.45855 9.31866 2.70075 9.31866 4.22733C9.31866 5.7547 8.07646 6.99729 6.54988 6.99729C5.0233 6.99729 3.7811 5.7547 3.7811 4.22733C3.7811 2.70036 5.0233 1.45855 6.54988 1.45855Z"
                          fill="white"
                        />
                        <path
                          d="M19.7836 10.0696L18.7922 9.74771C18.6701 9.28152 18.4846 8.83425 18.241 8.4184L18.7145 7.48948C18.7758 7.36878 18.7528 7.22229 18.6571 7.1262L17.5984 6.06759C17.5518 6.02089 17.4915 5.99018 17.4263 5.97986C17.3611 5.96954 17.2943 5.98015 17.2356 6.01017L16.3066 6.48361C15.8906 6.2405 15.4434 6.05508 14.9773 5.93243L14.6554 4.94219C14.635 4.87936 14.5952 4.82461 14.5417 4.7858C14.4882 4.747 14.4239 4.72612 14.3578 4.72617H12.8609C12.7253 4.72617 12.6054 4.81328 12.5632 4.94219L12.241 5.93243C11.775 6.05501 11.328 6.24044 10.912 6.48361L9.98352 6.01017C9.92466 5.98014 9.8578 5.96952 9.79254 5.97984C9.72728 5.99016 9.66696 6.02087 9.62023 6.06759L8.56162 7.1262C8.51491 7.17292 8.48419 7.23324 8.47387 7.29851C8.46356 7.36377 8.47417 7.43063 8.5042 7.48948L8.84991 8.16918C8.70967 8.15629 8.56748 8.14965 8.42412 8.14965H4.67798C2.09788 8.14965 -0.000976562 10.2485 -0.000976562 12.8286V16.529C-0.000976562 17.0677 0.43731 17.5064 0.976379 17.5064H12.1242C12.2999 17.5064 12.4652 17.4595 12.6078 17.3779C12.6368 17.4177 12.6748 17.4501 12.7187 17.4725C12.7626 17.4948 12.8112 17.5064 12.8605 17.5064H14.3574C14.4929 17.5064 14.6129 17.4193 14.6551 17.2904L14.9769 16.3001C15.4432 16.1779 15.8906 15.9925 16.3066 15.749L17.2356 16.2224C17.3563 16.2837 17.5027 16.2607 17.5988 16.165L18.6574 15.1064C18.7042 15.0596 18.7349 14.9993 18.7452 14.9341C18.7555 14.8688 18.7449 14.8019 18.7149 14.7431L18.2414 13.8142C18.4847 13.3982 18.6701 12.9509 18.7926 12.4849L19.784 12.163C19.8469 12.1425 19.9016 12.1027 19.9404 12.0492C19.9792 11.9958 20.0001 11.9314 20 11.8653V10.3673C19.9999 10.3012 19.979 10.2368 19.9401 10.1833C19.9012 10.1299 19.8465 10.0901 19.7836 10.0696ZM7.24051 12.5376L6.54988 13.761L5.85964 12.5376L6.21042 8.77543H6.89051L7.24051 12.5376ZM12.1242 16.8806H10.0519V14.5802C10.0519 14.4075 9.91203 14.2673 9.73898 14.2673C9.56593 14.2673 9.42609 14.4071 9.42609 14.5802V16.8806H3.67368V14.5802C3.67368 14.4075 3.53383 14.2673 3.36078 14.2673C3.18773 14.2673 3.04789 14.4071 3.04789 14.5802V16.8806H0.975597C0.781845 16.8806 0.624031 16.7228 0.624031 16.529V12.8286C0.624031 10.5934 2.44241 8.77543 4.6772 8.77543H5.5819L5.22721 12.577C5.22135 12.6405 5.23497 12.7043 5.26627 12.7599L6.27722 14.5517C6.33269 14.6501 6.4366 14.7107 6.54949 14.7107C6.66238 14.7107 6.76629 14.6497 6.82176 14.5517L7.83271 12.7599C7.86401 12.7043 7.87763 12.6405 7.87177 12.577L7.51825 8.77543H8.42295C9.34835 8.77543 10.2019 9.08755 10.8851 9.61177C10.8984 9.62545 10.9132 9.63795 10.9296 9.64927C10.9351 9.65318 10.9406 9.65631 10.946 9.65943C11.8773 10.4028 12.4753 11.5473 12.4753 12.829V16.5294C12.4757 16.7232 12.3179 16.8806 12.1242 16.8806ZM11.5402 9.34263C12.0554 8.74184 12.8097 8.38988 13.6089 8.38988C15.1117 8.38988 16.3348 9.61255 16.3348 11.1153C16.3348 12.6188 15.1121 13.8419 13.6089 13.8419C13.439 13.8419 13.2691 13.8255 13.1011 13.7935V12.8282C13.1011 11.445 12.4976 10.2001 11.5402 9.34263ZM19.3743 11.638L18.4336 11.943C18.382 11.9598 18.3355 11.9896 18.2989 12.0297C18.2623 12.0697 18.2367 12.1186 18.2246 12.1716C18.1072 12.69 17.9022 13.1846 17.6184 13.6341C17.5894 13.68 17.5729 13.7325 17.5705 13.7867C17.568 13.8409 17.5797 13.8948 17.6043 13.9431L18.0535 14.8243L17.3164 15.5615L16.4352 15.1122C16.3869 15.0875 16.333 15.0758 16.2788 15.0782C16.2246 15.0807 16.172 15.0973 16.1262 15.1263C15.6767 15.4101 15.1821 15.6152 14.6636 15.7325C14.6108 15.7446 14.5619 15.7701 14.5218 15.8067C14.4818 15.8432 14.4519 15.8896 14.4351 15.9411L14.13 16.8806H13.0875L13.0621 16.8021C13.0875 16.7154 13.1011 16.624 13.1011 16.529V14.4286C13.2691 14.4544 13.439 14.4681 13.6089 14.4681C15.457 14.4681 16.9602 12.9642 16.9602 11.1157C16.9602 9.26802 15.4566 7.76449 13.6089 7.76449C12.6164 7.76449 11.6808 8.20512 11.0468 8.95669C10.6113 8.66028 10.1287 8.43984 9.61945 8.30473C9.6171 8.29965 9.61515 8.29457 9.61281 8.28949L9.16437 7.40745L9.90148 6.67033L10.7831 7.11956C10.8314 7.14411 10.8852 7.15572 10.9393 7.15326C10.9934 7.15079 11.0459 7.13434 11.0917 7.10549C11.5433 6.82112 12.0351 6.61682 12.5535 6.49924C12.6062 6.48731 12.655 6.46188 12.695 6.42546C12.735 6.38903 12.7648 6.34284 12.7816 6.29142L13.0878 5.35118H14.1304L14.4355 6.29064C14.4522 6.34228 14.482 6.38868 14.5221 6.42527C14.5622 6.46185 14.6111 6.48734 14.664 6.49924C15.1828 6.61682 15.675 6.82072 16.1266 7.10549C16.1724 7.13442 16.225 7.15093 16.2792 7.15339C16.3334 7.15586 16.3872 7.1442 16.4355 7.11956L17.3168 6.67033L18.0539 7.40745L17.6047 8.28871C17.5801 8.33701 17.5684 8.39089 17.5709 8.44506C17.5733 8.49924 17.5898 8.55183 17.6188 8.5977C17.9026 9.04716 18.1076 9.54176 18.225 10.0602C18.2371 10.1132 18.2627 10.1621 18.2993 10.2021C18.3359 10.2422 18.3824 10.272 18.434 10.2887L19.3746 10.5938V11.638H19.3743ZM6.54988 7.62269C8.42178 7.62269 9.94445 6.09962 9.94445 4.22733C9.94445 2.35544 8.42178 0.832764 6.54988 0.832764C4.67838 0.832764 3.15531 2.35544 3.15531 4.22733C3.15531 6.09962 4.67838 7.62269 6.54988 7.62269ZM6.54988 1.45855C8.07646 1.45855 9.31866 2.70075 9.31866 4.22733C9.31866 5.7547 8.07646 6.99729 6.54988 6.99729C5.0233 6.99729 3.7811 5.7547 3.7811 4.22733C3.7811 2.70036 5.0233 1.45855 6.54988 1.45855Z"
                          stroke="white"
                          strokeWidth="0.4"
                          mask="url(#path-1-outside-1_0_1140)"
                        />
                      </g>
                      <defs>
                        <clipPath id="clip0_0_1140">
                          <rect width="20" height="20" fill="white" />
                        </clipPath>
                      </defs>
                    </svg>