 <svg
                      xmlns="http://www.w3.org/2000/svg"
                      width="20"
                      height="20"
                      viewBox="0 0 20 20"
                      fill="none"
                    >
                      <g clipPath="url(#clip0_0_3847)">
                        <path
                          d="M3.7499 20.15H3.75008H16.2501C17.4813 20.15 18.4834 19.1478 18.4834 17.9167V2.08333C18.4834 0.852157 17.4813 -0.15 16.2501 -0.15H3.75008C2.51891 -0.15 1.51675 0.852157 1.51675 2.08333L1.51675 17.9167L1.51675 17.9168C1.51746 18.5089 1.75296 19.0765 2.17161 19.4951C2.59025 19.9138 3.15785 20.1493 3.7499 20.15ZM2.65008 2.08333C2.65008 1.47701 3.14376 0.983333 3.75008 0.983333H16.2501C16.8564 0.983333 17.3501 1.47701 17.3501 2.08333V17.9167C17.3501 18.523 16.8564 19.0167 16.2501 19.0167H3.75008C3.14376 19.0167 2.65008 18.523 2.65008 17.9167V2.08333Z"
                          fill="white"
                          stroke="white"
                          strokeWidth="0.3"
                        />
                        <path
                          d="M15.8174 9.98402L15.7114 9.87795L15.8174 9.98402C15.9237 9.87775 15.9834 9.73361 15.9834 9.58332C15.9834 9.43303 15.9237 9.2889 15.8174 9.18263C15.7112 9.07636 15.567 9.01666 15.4167 9.01666H13.7501C13.5998 9.01666 13.4557 9.07636 13.3494 9.18263C13.2431 9.2889 13.1834 9.43303 13.1834 9.58332C13.1834 9.73361 13.2431 9.87775 13.3494 9.98402C13.4557 10.0903 13.5998 10.15 13.7501 10.15H15.4167C15.567 10.15 15.7112 10.0903 15.8174 9.98402ZM15.8174 6.68263L15.8174 6.68263C15.7112 6.57636 15.567 6.51666 15.4167 6.51666H13.7501C13.5998 6.51666 13.4557 6.57636 13.3494 6.68263C13.2431 6.7889 13.1834 6.93303 13.1834 7.08332C13.1834 7.23361 13.2431 7.37775 13.3494 7.48402C13.4557 7.59029 13.5998 7.64999 13.7501 7.64999H15.4167C15.567 7.64999 15.7112 7.59029 15.8174 7.48402L15.7114 7.37795L15.8174 7.48402C15.9237 7.37775 15.9834 7.23361 15.9834 7.08332C15.9834 6.93303 15.9237 6.7889 15.8174 6.68263ZM13.7501 12.65H15.4167C15.567 12.65 15.7112 12.5903 15.8174 12.484C15.9237 12.3777 15.9834 12.2336 15.9834 12.0833C15.9834 11.933 15.9237 11.7889 15.8174 11.6826C15.7112 11.5764 15.567 11.5167 15.4167 11.5167H13.7501C13.5998 11.5167 13.4557 11.5764 13.3494 11.6826C13.2431 11.7889 13.1834 11.933 13.1834 12.0833C13.1834 12.2336 13.2431 12.3777 13.3494 12.484C13.4557 12.5903 13.5998 12.65 13.7501 12.65ZM13.7501 15.15H15.4167C15.567 15.15 15.7112 15.0903 15.8174 14.984C15.9237 14.8777 15.9834 14.7336 15.9834 14.5833C15.9834 14.433 15.9237 14.2889 15.8174 14.1826C15.7112 14.0764 15.567 14.0167 15.4167 14.0167H13.7501C13.5998 14.0167 13.4557 14.0764 13.3494 14.1826C13.2431 14.2889 13.1834 14.433 13.1834 14.5833C13.1834 14.7336 13.2431 14.8777 13.3494 14.984C13.4557 15.0903 13.5998 15.15 13.7501 15.15ZM4.58341 17.65H15.4167C15.567 17.65 15.7112 17.5903 15.8174 17.484C15.9237 17.3777 15.9834 17.2336 15.9834 17.0833C15.9834 16.933 15.9237 16.7889 15.8174 16.6826C15.7112 16.5764 15.567 16.5167 15.4167 16.5167H4.58341C4.43313 16.5167 4.28899 16.5764 4.18272 16.6826C4.07645 16.7889 4.01675 16.933 4.01675 17.0833C4.01675 17.2336 4.07645 17.3777 4.18272 17.484C4.28899 17.5903 4.43313 17.65 4.58341 17.65ZM4.01675 10.8333C4.01675 13.2137 5.95307 15.15 8.33342 15.15C10.7138 15.15 12.6501 13.2137 12.6501 10.8333C12.6501 8.45298 10.7138 6.51666 8.33342 6.51666C5.95307 6.51666 4.01675 8.45298 4.01675 10.8333ZM5.15008 10.8333C5.15008 9.07783 6.57792 7.64999 8.33342 7.64999C10.0889 7.64999 11.5167 9.07783 11.5167 10.8333C11.5167 12.5888 10.0889 14.0167 8.33342 14.0167C6.57792 14.0167 5.15008 12.5888 5.15008 10.8333Z"
                          fill="white"
                          stroke="white"
                          strokeWidth="0.3"
                        />
                        <path
                          d="M5.68168 14.0517H5.6817C5.83188 14.0517 5.97597 13.9923 6.08247 13.8864L6.08278 13.8861L8.73445 11.2344L8.73501 11.2338C8.83995 11.1278 8.90005 10.9841 8.90005 10.8333V7.08332C8.90005 6.93303 8.84035 6.7889 8.73408 6.68263C8.6278 6.57636 8.48367 6.51666 8.33338 6.51666C8.18309 6.51666 8.03896 6.57636 7.93269 6.68263C7.82642 6.7889 7.76672 6.93303 7.76672 7.08332V10.5987L5.28065 13.0848L5.28048 13.0849C5.20142 13.1642 5.14763 13.2652 5.1259 13.3751C5.10418 13.4849 5.11549 13.5988 5.15842 13.7022C5.20135 13.8056 5.27396 13.894 5.36709 13.9562C5.46022 14.0184 5.56969 14.0516 5.68168 14.0517Z"
                          fill="white"
                          stroke="white"
                          strokeWidth="0.3"
                        />
                      </g>
                      <defs>
                        <clipPath id="clip0_0_3847">
                          <rect width="20" height="20" fill="white" />
                        </clipPath>
                      </defs>
                    </svg>