 <svg
                      xmlns="http://www.w3.org/2000/svg"
                      width="20"
                      height="21"
                      viewBox="0 0 20 21"
                      fill="none"
                    >
                      <path
                        d="M19.897 15.7793L17.1016 10.9377C17.0515 10.8495 16.9844 10.7721 16.9042 10.7099C16.824 10.6478 16.7324 10.6021 16.6344 10.5755C16.5365 10.5489 16.4344 10.542 16.3337 10.5551C16.2331 10.5681 16.1361 10.601 16.0483 10.6517C15.9604 10.7024 15.8835 10.77 15.8218 10.8506C15.7602 10.9312 15.7151 11.0232 15.6892 11.1213C15.6633 11.2193 15.657 11.3216 15.6708 11.4221C15.6845 11.5226 15.718 11.6194 15.7693 11.7069L17.9424 15.4708L15.7508 15.6016C15.6316 15.6088 15.5158 15.6437 15.4124 15.7035C15.3091 15.7634 15.2211 15.8464 15.1554 15.9462L13.9454 17.7785L10.7623 12.2654C12.0399 12.1065 13.2356 11.5511 14.1811 10.6772C15.1265 9.8034 15.7743 8.65513 16.0331 7.39397C16.292 6.13281 16.1489 4.82223 15.6241 3.64662C15.0992 2.471 14.219 1.48951 13.1073 0.840222C11.9956 0.190937 10.7082 -0.0934657 9.42645 0.027026C8.14465 0.147518 6.93288 0.666839 5.96162 1.51193C4.99036 2.35702 4.30849 3.48535 4.01193 4.73818C3.71537 5.99101 3.81906 7.30529 4.3084 8.49611L0.102974 15.7793C0.0374525 15.8928 0.00203551 16.0212 8.51558e-05 16.1523C-0.00186519 16.2834 0.0297156 16.4128 0.0918301 16.5282C0.153945 16.6437 0.244532 16.7413 0.354993 16.8119C0.465454 16.8825 0.592125 16.9237 0.722981 16.9316L3.77301 17.1147L5.45688 19.6647C5.52694 19.7708 5.62221 19.8579 5.73416 19.9182C5.84612 19.9784 5.97127 20.01 6.09842 20.0101H6.1215C6.25269 20.0061 6.38068 19.9687 6.49336 19.9014C6.60603 19.8341 6.69966 19.7391 6.76535 19.6255L9.12768 15.5323C9.22808 15.3558 9.25456 15.1466 9.20134 14.9506C9.14812 14.7546 9.01951 14.5875 8.8436 14.486C8.66768 14.3844 8.45874 14.3565 8.26235 14.4085C8.06597 14.4604 7.89809 14.5879 7.79536 14.7631L6.05457 17.7785L4.84456 15.9462C4.77883 15.8466 4.69081 15.7637 4.58747 15.704C4.48412 15.6443 4.3683 15.6095 4.24917 15.6023L2.05761 15.4708L5.20764 10.0154C6.14787 11.1844 7.48289 11.9695 8.96153 12.2231L13.2354 19.6255C13.301 19.739 13.3945 19.8339 13.5071 19.9012C13.6196 19.9685 13.7474 20.006 13.8785 20.0101H13.9016C14.0289 20.0101 14.1543 19.9784 14.2664 19.918C14.3785 19.8576 14.4739 19.7703 14.5439 19.6639L16.227 17.1147L19.277 16.9316C19.4079 16.9237 19.5345 16.8825 19.645 16.8119C19.7555 16.7413 19.8461 16.6437 19.9082 16.5282C19.9703 16.4128 20.0019 16.2834 19.9999 16.1523C19.998 16.0212 19.9625 15.8928 19.897 15.7793ZM5.38457 6.16378C5.38457 5.25094 5.65526 4.35859 6.16241 3.59959C6.66956 2.84058 7.39039 2.24901 8.23375 1.89968C9.07711 1.55035 10.0051 1.45895 10.9004 1.63703C11.7957 1.81512 12.6181 2.2547 13.2636 2.90018C13.9091 3.54566 14.3487 4.36805 14.5267 5.26336C14.7048 6.15866 14.6134 7.08667 14.2641 7.93003C13.9148 8.77339 13.3232 9.49422 12.5642 10.0014C11.8052 10.5085 10.9128 10.7792 10 10.7792C8.77635 10.7778 7.60322 10.2911 6.73797 9.42581C5.87272 8.56056 5.38599 7.38743 5.38457 6.16378Z"
                        fill="white"
                      />
                    </svg>