<svg
                      xmlns="http://www.w3.org/2000/svg"
                      width="19"
                      height="19"
                      viewBox="0 0 19 19"
                      fill="none"
                    >
                      <path
                        d="M16.6654 7.125H16.5894C16.478 7.12402 16.3695 7.0895 16.278 7.02596C16.1865 6.96242 16.1162 6.87279 16.0764 6.76875C16.0344 6.66829 16.0233 6.55762 16.0445 6.45083C16.0656 6.34404 16.1181 6.24596 16.1951 6.16906L16.2492 6.11503C16.5749 5.78808 16.7577 5.34539 16.7577 4.88389C16.7577 4.42239 16.5749 3.9797 16.2492 3.65275L15.352 2.75619C15.0253 2.43023 14.5827 2.24717 14.1212 2.24717C13.6597 2.24717 13.217 2.43023 12.8903 2.75619L12.8363 2.81022C12.7567 2.88688 12.6564 2.93864 12.5478 2.95913C12.4392 2.97963 12.327 2.96799 12.2249 2.92562C12.1229 2.88325 12.0354 2.81201 11.9732 2.72063C11.9111 2.62925 11.8769 2.52172 11.875 2.41122V2.33463C11.8745 1.87306 11.691 1.43054 11.3646 1.10416C11.0382 0.777786 10.5957 0.594222 10.1341 0.59375H8.86588C8.40431 0.594222 7.96179 0.777786 7.63541 1.10416C7.30904 1.43054 7.12547 1.87306 7.125 2.33463V2.41122C7.12211 2.52093 7.08747 2.62744 7.02529 2.71787C6.96311 2.8083 6.87605 2.87876 6.77464 2.92073C6.67324 2.9627 6.56184 2.97437 6.45394 2.95434C6.34604 2.9343 6.24626 2.88342 6.16669 2.80784L6.11562 2.75381C5.78893 2.42786 5.34628 2.2448 4.88478 2.2448C4.42329 2.2448 3.98063 2.42786 3.65394 2.75381L2.75381 3.65037C2.42811 3.97733 2.24524 4.42002 2.24524 4.88152C2.24524 5.34301 2.42811 5.7857 2.75381 6.11266L2.80784 6.16669C2.88566 6.2463 2.93774 6.34747 2.95733 6.45705C2.97691 6.56664 2.9631 6.67958 2.91769 6.78122C2.87694 6.88245 2.80693 6.96924 2.71661 7.03048C2.62629 7.09171 2.51975 7.12462 2.41062 7.125H2.33463C1.87306 7.12547 1.43054 7.30904 1.10416 7.63541C0.777786 7.96179 0.594222 8.40431 0.59375 8.86588V10.1341C0.594222 10.5957 0.777786 11.0382 1.10416 11.3646C1.43054 11.691 1.87306 11.8745 2.33463 11.875H2.41062C2.52202 11.876 2.63054 11.9105 2.72205 11.974C2.81355 12.0376 2.88379 12.1272 2.92362 12.2312C2.96556 12.3317 2.97666 12.4424 2.95552 12.5492C2.93437 12.656 2.88193 12.754 2.80487 12.8309L2.75084 12.885C2.42514 13.2119 2.24227 13.6546 2.24227 14.1161C2.24227 14.5776 2.42514 15.0203 2.75084 15.3472L3.64741 16.2432C3.97405 16.5695 4.41686 16.7528 4.87855 16.7528C5.34024 16.7528 5.78304 16.5695 6.10969 16.2432L6.16372 16.1892C6.24337 16.1114 6.34454 16.0594 6.4541 16.0398C6.56367 16.0202 6.6766 16.034 6.77825 16.0793C6.87948 16.1199 6.96629 16.1898 7.02754 16.28C7.0888 16.3703 7.1217 16.4768 7.12203 16.5858V16.6624C7.12188 16.8915 7.16687 17.1183 7.25446 17.3299C7.34204 17.5416 7.47048 17.7339 7.63244 17.8958C7.7944 18.0578 7.98671 18.1862 8.19835 18.2738C8.40999 18.3614 8.63683 18.4064 8.86588 18.4062H10.1341C10.5957 18.4058 11.0382 18.2222 11.3646 17.8958C11.691 17.5695 11.8745 17.1269 11.875 16.6654V16.5888C11.8779 16.4791 11.9125 16.3726 11.9747 16.2821C12.0369 16.1917 12.124 16.1212 12.2254 16.0793C12.3268 16.0373 12.4382 16.0256 12.5461 16.0457C12.654 16.0657 12.7537 16.1166 12.8333 16.1922L12.8873 16.2462C13.214 16.5721 13.6567 16.7552 14.1182 16.7552C14.5797 16.7552 15.0223 16.5721 15.349 16.2462L16.2462 15.3502C16.5719 15.0233 16.7548 14.5806 16.7548 14.1191C16.7548 13.6576 16.5719 13.2149 16.2462 12.8879L16.1922 12.8339C16.1143 12.7543 16.0623 12.6531 16.0427 12.5435C16.0231 12.434 16.0369 12.321 16.0823 12.2194C16.123 12.118 16.1929 12.0311 16.2833 11.9698C16.3736 11.9084 16.4802 11.8754 16.5894 11.875H16.6654C17.1269 11.8745 17.5695 11.691 17.8958 11.3646C18.2222 11.0382 18.4058 10.5957 18.4062 10.1341V8.86588C18.4058 8.40431 18.2222 7.96179 17.8958 7.63541C17.5695 7.30904 17.1269 7.12547 16.6654 7.125ZM17.2188 10.1341C17.2186 10.2808 17.1602 10.4215 17.0565 10.5252C16.9528 10.629 16.8121 10.6873 16.6654 10.6875H16.5894C16.2448 10.6904 15.9087 10.7947 15.6231 10.9874C15.3374 11.18 15.1147 11.4525 14.9828 11.7708C14.8509 12.0891 14.8157 12.4393 14.8814 12.7775C14.9472 13.1157 15.1111 13.4271 15.3526 13.6729L15.406 13.7269C15.5097 13.8309 15.5679 13.9717 15.5679 14.1185C15.5679 14.2653 15.5097 14.4061 15.406 14.5101L14.5089 15.406C14.4051 15.5098 14.2644 15.5681 14.1176 15.5681C13.9708 15.5681 13.8301 15.5098 13.7263 15.406L13.6729 15.352C13.427 15.1107 13.1156 14.9471 12.7775 14.8815C12.4394 14.8159 12.0894 14.8513 11.7712 14.9831C11.4529 15.1149 11.1805 15.3374 10.9878 15.623C10.7952 15.9085 10.6907 16.2443 10.6875 16.5888V16.6654C10.6873 16.8121 10.629 16.9528 10.5252 17.0565C10.4215 17.1602 10.2808 17.2186 10.1341 17.2188H8.86588C8.71916 17.2186 8.5785 17.1602 8.47475 17.0565C8.37101 16.9528 8.31266 16.8121 8.3125 16.6654V16.5888C8.31083 16.2436 8.20727 15.9067 8.01482 15.6202C7.82236 15.3337 7.54958 15.1104 7.2307 14.9784C6.91182 14.8464 6.56105 14.8114 6.2224 14.878C5.88375 14.9446 5.57229 15.1097 5.32713 15.3526L5.27309 15.4066C5.16916 15.5101 5.02847 15.5682 4.88181 15.5682C4.73515 15.5682 4.59446 15.5101 4.49053 15.4066L3.59397 14.5107C3.49031 14.4067 3.4321 14.2659 3.4321 14.1191C3.4321 13.9723 3.49031 13.8315 3.59397 13.7275L3.648 13.6735C3.88977 13.4277 4.05382 13.1162 4.11967 12.7778C4.18552 12.4394 4.15025 12.0891 4.01828 11.7707C3.8863 11.4522 3.66346 11.1796 3.37756 10.987C3.09165 10.7944 2.75535 10.6902 2.41062 10.6875H2.33463C2.18791 10.6873 2.04725 10.629 1.9435 10.5252C1.83976 10.4215 1.78141 10.2808 1.78125 10.1341V8.86588C1.78141 8.71916 1.83976 8.5785 1.9435 8.47475C2.04725 8.37101 2.18791 8.31266 2.33463 8.3125H2.41062C2.75518 8.30957 3.09126 8.20528 3.37694 8.01264C3.66263 7.82 3.8853 7.54752 4.01718 7.22919C4.14906 6.91085 4.18432 6.56074 4.11856 6.2225C4.05281 5.88427 3.88894 5.57287 3.64741 5.32713L3.59397 5.27309C3.49034 5.16924 3.43215 5.02852 3.43215 4.88181C3.43215 4.7351 3.49034 4.59439 3.59397 4.49053L4.49053 3.59337C4.59431 3.48961 4.73506 3.43131 4.88181 3.43131C5.02857 3.43131 5.16932 3.48961 5.27309 3.59337L5.32653 3.64741C5.57231 3.88883 5.88369 4.05261 6.22188 4.11834C6.56007 4.18407 6.91013 4.14885 7.22844 4.01707C7.54676 3.88528 7.81927 3.66276 8.01204 3.37721C8.2048 3.09167 8.30929 2.75572 8.3125 2.41122V2.33463C8.31266 2.18791 8.37101 2.04725 8.47475 1.9435C8.5785 1.83976 8.71916 1.78141 8.86588 1.78125H10.1341C10.2808 1.78141 10.4215 1.83976 10.5252 1.9435C10.629 2.04725 10.6873 2.18791 10.6875 2.33463V2.41122C10.6905 2.75573 10.7949 3.09172 10.9876 3.37732C11.1803 3.66292 11.4528 3.88549 11.7711 4.0173C12.0894 4.1491 12.4395 4.18431 12.7776 4.11854C13.1158 4.05276 13.4272 3.88891 13.6729 3.64741L13.7269 3.59337C13.8307 3.48961 13.9714 3.43131 14.1182 3.43131C14.2649 3.43131 14.4057 3.48961 14.5095 3.59337L15.406 4.49053C15.5097 4.59439 15.5679 4.7351 15.5679 4.88181C15.5679 5.02852 15.5097 5.16924 15.406 5.27309L15.352 5.32713C15.1104 5.5729 14.9466 5.88436 14.8808 6.22265C14.8151 6.56094 14.8504 6.9111 14.9823 7.22946C15.1143 7.54782 15.3371 7.82028 15.6228 8.01288C15.9086 8.20548 16.2448 8.30968 16.5894 8.3125H16.6654C16.8121 8.31266 16.9528 8.37101 17.0565 8.47475C17.1602 8.5785 17.2186 8.71916 17.2188 8.86588V10.1341Z"
                        fill="white"
                      />
                      <path
                        d="M9.5 5.34375C8.67797 5.34375 7.8744 5.58751 7.19091 6.0442C6.50742 6.5009 5.9747 7.15002 5.66013 7.90947C5.34555 8.66893 5.26324 9.50461 5.42361 10.3108C5.58398 11.1171 5.97983 11.8577 6.56109 12.4389C7.14235 13.0202 7.88292 13.416 8.68916 13.5764C9.49539 13.7368 10.3311 13.6545 11.0905 13.3399C11.85 13.0253 12.4991 12.4926 12.9558 11.8091C13.4125 11.1256 13.6563 10.322 13.6563 9.5C13.655 8.39808 13.2167 7.34165 12.4375 6.56248C11.6583 5.7833 10.6019 5.34501 9.5 5.34375ZM9.5 12.4688C8.91284 12.4688 8.33886 12.2946 7.85065 11.9684C7.36244 11.6422 6.98193 11.1786 6.75723 10.6361C6.53254 10.0936 6.47375 9.49671 6.5883 8.92083C6.70284 8.34494 6.98559 7.81596 7.40078 7.40078C7.81597 6.98559 8.34495 6.70284 8.92083 6.58829C9.49671 6.47374 10.0936 6.53253 10.6361 6.75723C11.1786 6.98193 11.6422 7.36244 11.9684 7.85065C12.2946 8.33886 12.4688 8.91284 12.4688 9.5C12.4678 10.2871 12.1547 11.0416 11.5982 11.5982C11.0416 12.1547 10.2871 12.4678 9.5 12.4688Z"
                        fill="white"
                      />
                    </svg>