<svg
                      xmlns="http://www.w3.org/2000/svg"
                      width="20"
                      height="20"
                      viewBox="0 0 20 20"
                      fill="none"
                    >
                      <path
                        fillRule="evenodd"
                        clipRule="evenodd"
                        d="M9.58342 16.8859H2.45841C2.41421 16.8859 2.37182 16.8684 2.34056 16.8371C2.30931 16.8058 2.29175 16.7635 2.29175 16.7192V15.5101C2.29175 14.8184 2.78591 14.2084 3.54758 13.6901C4.90758 12.7617 7.10842 12.1767 9.58342 12.1767C9.74918 12.1767 9.90815 12.1109 10.0254 11.9937C10.1426 11.8765 10.2084 11.7175 10.2084 11.5517C10.2084 11.386 10.1426 11.227 10.0254 11.1098C9.90815 10.9926 9.74918 10.9267 9.58342 10.9267C6.81508 10.9267 4.36425 11.6192 2.84258 12.6567C1.68175 13.4484 1.04175 14.4542 1.04175 15.5101V16.7192C1.04175 17.095 1.191 17.4553 1.45668 17.721C1.72236 17.9867 2.08269 18.1359 2.45841 18.1359H9.58342C9.74918 18.1359 9.90815 18.0701 10.0254 17.9529C10.1426 17.8356 10.2084 17.6767 10.2084 17.5109C10.2084 17.3452 10.1426 17.1862 10.0254 17.069C9.90815 16.9518 9.74918 16.8859 9.58342 16.8859ZM9.58342 1.04175C7.05341 1.04175 5.00008 3.09508 5.00008 5.62508C5.00008 8.15508 7.05341 10.2084 9.58342 10.2084C12.1134 10.2084 14.1667 8.15508 14.1667 5.62508C14.1667 3.09508 12.1134 1.04175 9.58342 1.04175ZM9.58342 2.29175C11.4234 2.29175 12.9167 3.78508 12.9167 5.62508C12.9167 7.46508 11.4234 8.95842 9.58342 8.95842C7.74341 8.95842 6.25008 7.46508 6.25008 5.62508C6.25008 3.78508 7.74341 2.29175 9.58342 2.29175ZM14.5834 11.6151C13.811 11.6375 13.0777 11.9601 12.5392 12.5144C12.0008 13.0687 11.6996 13.8111 11.6996 14.5838C11.6996 15.3566 12.0008 16.099 12.5392 16.6533C13.0777 17.2076 13.811 17.5302 14.5834 17.5526C16.2217 17.5526 17.5526 16.2217 17.5526 14.5834C17.5526 12.9451 16.2217 11.6151 14.5834 11.6151ZM14.5834 12.8651C15.5317 12.8651 16.3026 13.6351 16.3026 14.5834C16.3026 15.5317 15.5317 16.3026 14.5834 16.3026C13.6351 16.3026 12.8642 15.5317 12.8642 14.5834C12.8642 13.6351 13.6351 12.8651 14.5834 12.8651Z"
                        fill="white"
                      />
                      <path
                        fillRule="evenodd"
                        clipRule="evenodd"
                        d="M15.2085 12.2393V10.8335C15.2085 10.6677 15.1426 10.5088 15.0254 10.3916C14.9082 10.2743 14.7493 10.2085 14.5835 10.2085C14.4177 10.2085 14.2588 10.2743 14.1416 10.3916C14.0243 10.5088 13.9585 10.6677 13.9585 10.8335V12.2402C13.9586 12.4059 14.0246 12.5649 14.1418 12.682C14.2591 12.7991 14.4182 12.8649 14.5839 12.8647C14.7497 12.8646 14.9086 12.7987 15.0257 12.6814C15.1429 12.5641 15.2086 12.4051 15.2085 12.2393ZM16.6827 13.3685L17.6768 12.3735C17.794 12.2564 17.8598 12.0975 17.8598 11.9318C17.8598 11.7662 17.794 11.6073 17.6768 11.4902C17.5597 11.373 17.4008 11.3072 17.2352 11.3072C17.0695 11.3072 16.9106 11.373 16.7935 11.4902L15.7985 12.4843C15.6816 12.6018 15.616 12.7607 15.616 12.9264C15.616 13.0921 15.6816 13.2511 15.7985 13.3685C15.9159 13.4854 16.0749 13.551 16.2406 13.551C16.4063 13.551 16.5652 13.4854 16.6827 13.3685ZM16.9268 15.2085H18.3335C18.4993 15.2085 18.6582 15.1426 18.7754 15.0254C18.8926 14.9082 18.9585 14.7493 18.9585 14.5835C18.9585 14.4177 18.8926 14.2588 18.7754 14.1416C18.6582 14.0243 18.4993 13.9585 18.3335 13.9585H16.9268C16.7611 13.9585 16.6021 14.0243 16.4849 14.1416C16.3677 14.2588 16.3018 14.4177 16.3018 14.5835C16.3018 14.7493 16.3677 14.9082 16.4849 15.0254C16.6021 15.1426 16.7611 15.2085 16.9268 15.2085ZM15.7985 16.6827L16.7935 17.6768C16.8515 17.7348 16.9204 17.7808 16.9961 17.8122C17.0719 17.8436 17.1531 17.8598 17.2352 17.8598C17.3172 17.8598 17.3984 17.8436 17.4742 17.8122C17.55 17.7808 17.6188 17.7348 17.6768 17.6768C17.7348 17.6188 17.7808 17.55 17.8122 17.4742C17.8436 17.3984 17.8598 17.3172 17.8598 17.2352C17.8598 17.1531 17.8436 17.0719 17.8122 16.9961C17.7808 16.9204 17.7348 16.8515 17.6768 16.7935L16.6827 15.7985C16.5652 15.6816 16.4063 15.616 16.2406 15.616C16.0749 15.616 15.9159 15.6816 15.7985 15.7985C15.6816 15.9159 15.616 16.0749 15.616 16.2406C15.616 16.4063 15.6816 16.5652 15.7985 16.6827ZM13.9585 16.9268V18.3335C13.9585 18.4993 14.0243 18.6582 14.1416 18.7754C14.2588 18.8926 14.4177 18.9585 14.5835 18.9585C14.7493 18.9585 14.9082 18.8926 15.0254 18.7754C15.1426 18.6582 15.2085 18.4993 15.2085 18.3335V16.9268C15.2085 16.7611 15.1426 16.6021 15.0254 16.4849C14.9082 16.3677 14.7493 16.3018 14.5835 16.3018C14.4177 16.3018 14.2588 16.3677 14.1416 16.4849C14.0243 16.6021 13.9585 16.7611 13.9585 16.9268ZM12.4843 15.7985L11.4902 16.7935C11.4322 16.8515 11.3862 16.9204 11.3548 16.9961C11.3234 17.0719 11.3072 17.1531 11.3072 17.2352C11.3072 17.3172 11.3234 17.3984 11.3548 17.4742C11.3862 17.55 11.4322 17.6188 11.4902 17.6768C11.5482 17.7348 11.617 17.7808 11.6928 17.8122C11.7686 17.8436 11.8498 17.8598 11.9318 17.8598C12.0139 17.8598 12.0951 17.8436 12.1709 17.8122C12.2466 17.7808 12.3155 17.7348 12.3735 17.6768L13.3685 16.6827C13.4854 16.5652 13.551 16.4063 13.551 16.2406C13.551 16.0749 13.4854 15.9159 13.3685 15.7985C13.2511 15.6816 13.0921 15.616 12.9264 15.616C12.7607 15.616 12.6018 15.6816 12.4843 15.7985ZM12.2393 13.9585H10.8335C10.6677 13.9585 10.5088 14.0243 10.3916 14.1416C10.2743 14.2588 10.2085 14.4177 10.2085 14.5835C10.2085 14.7493 10.2743 14.9082 10.3916 15.0254C10.5088 15.1426 10.6677 15.2085 10.8335 15.2085H12.2393C12.4051 15.2085 12.5641 15.1426 12.6813 15.0254C12.7985 14.9082 12.8643 14.7493 12.8643 14.5835C12.8643 14.4177 12.7985 14.2588 12.6813 14.1416C12.5641 14.0243 12.4051 13.9585 12.2393 13.9585ZM13.3685 12.4843L12.3735 11.4902C12.3155 11.4322 12.2466 11.3862 12.1709 11.3548C12.0951 11.3234 12.0139 11.3072 11.9318 11.3072C11.8498 11.3072 11.7686 11.3234 11.6928 11.3548C11.617 11.3862 11.5482 11.4322 11.4902 11.4902C11.4322 11.5482 11.3862 11.617 11.3548 11.6928C11.3234 11.7686 11.3072 11.8498 11.3072 11.9318C11.3072 12.0139 11.3234 12.0951 11.3548 12.1709C11.3862 12.2466 11.4322 12.3155 11.4902 12.3735L12.4843 13.3685C12.6018 13.4854 12.7607 13.551 12.9264 13.551C13.0921 13.551 13.2511 13.4854 13.3685 13.3685C13.4854 13.2511 13.551 13.0921 13.551 12.9264C13.551 12.7607 13.4854 12.6018 13.3685 12.4843Z"
                        fill="white"
                      />
                    </svg>